<svg width="260" height="78" viewBox="0 0 260 78" fill="none" xmlns="http://www.w3.org/2000/svg">
<path d="M20.1044 57.7937C22.3895 57.7937 24.5809 56.7789 26.1966 54.9726C27.8125 53.1663 28.7202 50.7163 28.7202 48.1618L28.7202 32.1067C28.7202 30.4035 29.3255 28.7704 30.4027 27.5662C31.4799 26.362 32.9409 25.6853 34.4644 25.6853L40.2085 25.6853L40.2085 19.2638L34.4646 19.2638C31.4178 19.2638 28.4958 20.6168 26.3412 23.0253C24.1868 25.4339 22.9765 28.7006 22.9765 32.1067L22.9765 48.1613C22.9765 49.0129 22.6738 49.8296 22.1353 50.4317C21.5966 51.0339 20.8661 51.3721 20.1044 51.3721C19.3427 51.3721 18.6121 51.0339 18.0735 50.4317C17.5349 49.8296 17.2323 49.0129 17.2323 48.1613L17.2323 32.1067C17.2323 28.7006 16.0219 25.4339 13.8675 23.0253C11.7131 20.6168 8.791 19.2638 5.74417 19.2638L-1.80032e-06 19.2638L-1.50022e-06 25.6863L5.74417 25.6863C7.2674 25.6863 8.72828 26.3627 9.80545 27.5667C10.8826 28.7707 11.4879 30.4038 11.4881 32.1067L11.4881 48.1613C11.4881 49.4263 11.7109 50.6789 12.1439 51.8476C12.5769 53.0162 13.2115 54.0781 14.0116 54.9726C14.8117 55.867 15.7616 56.5765 16.807 57.0606C17.8524 57.5446 18.9729 57.7937 20.1044 57.7937Z" fill="url(#paint0_linear_57_235)"/>
<path d="M77.6213 33.456C77.0133 32.3413 76.1773 31.4926 75.1133 30.91C74.0493 30.3273 72.808 30.036 71.3893 30.036C69.8186 30.036 68.4253 30.3906 67.2093 31.1C65.9933 31.8093 65.0433 32.8226 64.3593 34.14C63.6753 35.4573 63.3333 36.9773 63.3333 38.7C63.3333 40.4733 63.6753 42.0186 64.3593 43.336C65.0686 44.6533 66.0439 45.6667 67.2853 46.376C68.5266 47.0853 69.9706 47.44 71.6173 47.44C73.644 47.44 75.3033 46.908 76.5953 45.844C77.8873 44.7547 78.736 43.2473 79.1413 41.322H70.0213V37.256H84.3853V41.892C84.0306 43.7413 83.2706 45.4513 82.1053 47.022C80.94 48.5927 79.4326 49.8593 77.5833 50.822C75.7593 51.7593 73.7073 52.228 71.4273 52.228C68.8686 52.228 66.5506 51.658 64.4733 50.518C62.4213 49.3527 60.7999 47.744 59.6093 45.692C58.4439 43.64 57.8613 41.3093 57.8613 38.7C57.8613 36.0906 58.4439 33.76 59.6093 31.708C60.7999 29.6306 62.4213 28.0219 64.4733 26.8819C66.5506 25.7166 68.8559 25.1339 71.3893 25.1339C74.3786 25.1339 76.9753 25.8686 79.1793 27.3379C81.3833 28.782 82.9033 30.8213 83.7393 33.456H77.6213ZM107.321 30.948L94.2873 61.956H88.6253L93.1853 51.468L84.7493 30.948H90.7153L96.1493 45.654L101.659 30.948H107.321ZM135.193 30.644C137.777 30.644 139.855 31.442 141.425 33.038C143.021 34.6086 143.819 36.8126 143.819 39.65V52H138.499V40.372C138.499 38.7253 138.081 37.4713 137.245 36.61C136.409 35.7233 135.269 35.28 133.825 35.28C132.381 35.28 131.229 35.7233 130.367 36.61C129.531 37.4713 129.113 38.7253 129.113 40.372V52H123.793V40.372C123.793 38.7253 123.375 37.4713 122.539 36.61C121.703 35.7233 120.563 35.28 119.119 35.28C117.65 35.28 116.484 35.7233 115.623 36.61C114.787 37.4713 114.369 38.7253 114.369 40.372V52H109.049V30.948H114.369V33.494C115.053 32.6073 115.927 31.9106 116.991 31.404C118.08 30.8973 119.271 30.644 120.563 30.644C122.21 30.644 123.679 30.9986 124.971 31.708C126.263 32.392 127.264 33.38 127.973 34.672C128.657 33.456 129.645 32.4806 130.937 31.746C132.255 31.0113 133.673 30.644 135.193 30.644ZM169.73 25.4759V52H164.41V40.714H153.048V52H147.728V25.4759H153.048V36.382H164.41V25.4759H169.73ZM176.524 28.44C175.587 28.44 174.801 28.1486 174.168 27.5659C173.56 26.9579 173.256 26.2106 173.256 25.3239C173.256 24.4373 173.56 23.7026 174.168 23.1199C174.801 22.5119 175.587 22.2079 176.524 22.2079C177.461 22.2079 178.234 22.5119 178.842 23.1199C179.475 23.7026 179.792 24.4373 179.792 25.3239C179.792 26.2106 179.475 26.9579 178.842 27.5659C178.234 28.1486 177.461 28.44 176.524 28.44ZM179.146 30.948V52H173.826V30.948H179.146ZM189.456 35.318V45.502C189.456 46.2113 189.621 46.7307 189.95 47.06C190.305 47.364 190.887 47.516 191.698 47.516H194.168V52H190.824C186.34 52 184.098 49.8213 184.098 45.464V35.318H181.59V30.948H184.098V25.7419H189.456V30.948H194.168V35.318H189.456Z" fill="#F54A48"/>
<defs>
<linearGradient id="paint0_linear_57_235" x1="20.1043" y1="64.8447" x2="20.1043" y2="15.3722" gradientUnits="userSpaceOnUse">
<stop stop-color="#F54A48"/>
<stop offset="1" stop-color="#FA982F"/>
</linearGradient>
</defs>
</svg>
